/* XPM */
static char *_6accefd8f914c10ee0cf0273de63f135fzLv7PjiH2wi0Jx[] = {
/* columns rows colors chars-per-pixel */
"64 64 159 2 ",
"   c None",
".  c #000000",
"X  c #0C0000",
"o  c #03040E",
"O  c #0C0C0C",
"+  c #0B0B07",
"@  c #1B0000",
"#  c #0E1111",
"$  c #131313",
"%  c #191812",
"&  c #1C1D1D",
"*  c #13131B",
"=  c #161F20",
"-  c #172121",
";  c #1A2122",
":  c #212222",
">  c #25292A",
",  c #2C2C2C",
"<  c #2A2F30",
"1  c #293939",
"2  c #2C3535",
"3  c #343636",
"4  c #3D3D3D",
"5  c #540000",
"6  c #401111",
"7  c #334647",
"8  c #334748",
"9  c #3D4445",
"0  c #444444",
"q  c #414949",
"w  c #4D4D4D",
"e  c #514F4F",
"r  c #464F51",
"t  c #495C5C",
"y  c #525252",
"u  c #525C5D",
"i  c #5B5B5B",
"p  c #735858",
"a  c #686850",
"s  c #686B59",
"d  c #6E705A",
"f  c #445F60",
"g  c #4D6D6E",
"h  c #566061",
"j  c #5E6B6B",
"k  c #55606A",
"l  c #507071",
"z  c #646464",
"x  c #6A6A6A",
"c  c #696868",
"v  c #756E6E",
"b  c #7F7F61",
"n  c #656F70",
"m  c #667374",
"M  c #6F7474",
"N  c #697778",
"B  c #737373",
"V  c #7B7B7B",
"C  c #890000",
"Z  c #930808",
"A  c #C70000",
"S  c #F10D0D",
"D  c #F42D2D",
"F  c #AE7A7A",
"G  c #CC6B6B",
"H  c #717F80",
"J  c #0D15CB",
"K  c #1119CD",
"L  c #424FCA",
"P  c #5463DE",
"I  c #748384",
"U  c #7D8080",
"Y  c #778B8C",
"T  c #7D8C8D",
"R  c #6C9798",
"E  c #74A2A3",
"W  c #79A8A9",
"Q  c #7EA2A3",
"!  c #818181",
"~  c #838888",
"^  c #8E8E8E",
"/  c #809394",
"(  c #929292",
")  c #989696",
"_  c #9B9B9B",
"`  c #909C9D",
"'  c #B4B58E",
"]  c #91A3A4",
"[  c #98A6A7",
"{  c #95A8A9",
"}  c #9BADAF",
"|  c #A5A6A6",
" . c #A3AAAA",
".. c #ACABAB",
"X. c #B0AFAF",
"o. c #A3B3AA",
"O. c #A4B8B9",
"+. c #ADB5B5",
"@. c gray71",
"#. c #B8B6B6",
"$. c #BCBCBC",
"%. c #C99E9E",
"&. c #DBA7A7",
"*. c #DBDCAC",
"=. c #98ADCC",
"-. c #AABEC0",
";. c #8CC2C4",
":. c #9BCFD0",
">. c #ADCBCC",
",. c #A7C1C2",
"<. c #BCC2C2",
"1. c #B0C6C8",
"2. c #B2C9CA",
"3. c #B9CBCB",
"4. c #B7CED0",
"5. c #B9D6D7",
"6. c #BED6D8",
"7. c #B7D8D9",
"8. c #A2E2E4",
"9. c #A6E8EA",
"0. c #B5E5E7",
"q. c #B4E6E8",
"w. c #B2EFF1",
"e. c #AFF4F6",
"r. c #B5F5F7",
"t. c #B4F7F9",
"y. c #B3F9FB",
"u. c #BAFCFE",
"i. c #C6C6C6",
"p. c #C5C8C8",
"a. c #CFCFCF",
"s. c #D1C8C8",
"d. c #D8CACA",
"f. c #C4DADB",
"g. c #C8DCDE",
"h. c #D3D3D3",
"j. c #D3DBDB",
"k. c gainsboro",
"l. c #F6FED5",
"z. c #C7DBF0",
"x. c #CAE4E6",
"c. c #CBE5E7",
"v. c #D6E3E4",
"b. c #D2EBED",
"n. c #DAEDEF",
"m. c #DBEFE1",
"M. c #C1F9FB",
"N. c #D7F2F3",
"B. c #DBF3F5",
"V. c #D6FBFC",
"C. c #DCFAFC",
"Z. c #DAF6F8",
"A. c gray92",
"S. c #EAFAEF",
"D. c #E1FCFD",
"F. c #EBFBFC",
"G. c #F3F3F3",
"H. c #F2FCFD",
"J. c #FCFFFF",
/* pixels */
"                                                                                                                                ",
"                                                                                                                                ",
"                                                                                                                                ",
"                                                                                                                                ",
"                                                                                                                                ",
"                                                                                                                                ",
"                                                                                                                                ",
"                                                                                                                                ",
"                                                                                                                                ",
"                                                                                                                                ",
"                                                    . . . . . . . . . . . .                                                     ",
"                                                  O O O O # # # # # # # # # #                                                   ",
"                                                . B _ )  .>.>.>.>.>.2.>.>.4.Q .                                                 ",
"                                              & , ^ $.3.x.V.V.V.V.V.V.V.V.V.,.4 ,                                               ",
"                                            . w @.@.<.r.M.V.V.V.V.V.V.V.V.V.C.G.x .                                             ",
"                                            . y $.3.7.r.:.Y Y Y Y Y Y Y Y Y } H.x .                                             ",
"                                            . y $.q.y.u.R . . . . . . . . . 9 N.j .                                             ",
"                                          : V [ 0.e.8.8 l W W W { { { { { } T w I ] >                                           ",
"                                        . : X.5.e.9.;.; l y.u.u.V.D.D.D.C.D.O.% T 6.: .                                         ",
"                                        . : ..5.e.g 1 ;.9.y.y.y.V.Z.C.C.Z.C.m.*.s & + .                                         ",
"                                        . : ..5.e.7 = 8.y.y.y.t.Z.Z.F.F.F.F.S.l.s . . .                                         ",
"                                        . : ..5.e.7 - 8.y.t.y.t.V.F.J.J.J.J.H.Z.n . . .                                         ",
"                                        . : ..5.e.7 = 8.y.y.y.y.M.V.F.H.J.H.F.D.j . . .                                         ",
"                                        . : ..5.e.7 - 8.y.y.y.y.y.M.Z.H.J.D.Z.C.j . . .                                         ",
"                                        . : ..+.{ , - 8.y.y.y.e.t.u.C.H.J.Z.Z.D.j . . .                                         ",
"                                        . : ) _ ( 4 2 ;.8.y.y.y.t.M.Z.H.J.D.N.6.u . . .                                         ",
"                                            O i #.X.( & g y.u.u.y.M.D.D.D.D.O.& + .                                             ",
"                                            . w $.$.| y j E E E E Q ] ] ] ] m . . .                                             ",
"                                      . . . . y $.$.-.h.! . . . . . . . . . . .                                                 ",
"                            . . . . q V V V V c w w y y 3 . . . . . . . . . . .       . .                                       ",
"                          . . O O + c d.d.h.h.V . . + O O O O O O # O o o # O .     # O O +                                     ",
"                          . + H | | G D &.h.h.| B B U -.2.2.2.2.2.2.1.L J =.T . . $ ..i.| i .                                   ",
"                          . + | h.h.G A F | | _ ( V ~ N.b.2.b.Z.4.f.C.P K z.o.+ @ 6 s.A.h.z .                                   ",
"                          . O | h.j.v X O O + 0 ^ , > b.] O } x.> u C.k * *.' o C S %.p.h.z .                                   ",
"                          . + i V V 4 . . . . 4 ^ , $ I t . h I O < T 3 + b a . 5 Z p M V w .                                   ",
"                          . . . . . . .     . 4 ^ , . . . . . . . . . . . . . . . . . . .                                       ",
"                                            . 4 ^ ` ] ] ] ] ] ] ] ] ] ] ] { m . .                                               ",
"                                            . 4 ( g.D.C.D.C.C.D.D.D.C.D.C.b.] +                                                 ",
"                                            . 4 ( f.C.Z.Z.Z.v.j.B.Z.C.D.c.9 ;                                                   ",
"                                            . 4 ( g.C.C.B.n.j.a.n.B.Z.Z.x.; .                                                   ",
"                                            . 4 ( g.D.C.n.h.h.h.a.v.Z.D.x.: .                                                   ",
"                                              , w n I H M x x B | <.v.[ N ;                                                     ",
"                                                . . . . . . . O V | a.w .                                                       ",
"                                        . . . . . . $ ( | | 4 O V | h.w .                                                       ",
"                                        . . $ $ $ & 4 h.k.i.0 O V | a.y .                                                       ",
"                                        . % B ! ! @.h.A.) $ + $ F | a.w .                                                       ",
"                                        . : | | ( _ _ _ x . . $ I | a.V 4                                                       ",
"                                        . < G.h.^ , . . .   . O N [ a.a.$.& .                                                   ",
"                                        . $ x i 4 :         . $ V | a.h.$.& .                                                   ",
"                                        . . . . .           . $ V _ i.i.@.& .                                                   ",
"                                                                & > , , , + .                                                   ",
"                                                                . . . . . . .                                                   ",
"                                                                                                                                ",
"                                                                                                                                ",
"                                                                                                                                ",
"                                                                                                                                ",
"                                                                                                                                ",
"                                                                                                                                ",
"                                                                                                                                ",
"                                                                                                                                ",
"                                                                                                                                ",
"                                                                                                                                ",
"                                                                                                                                ",
"                                                                                                                                "
};
