/* XPM */
static char *_01ebc0143ae475d9922b08356893812IUEdNGpPM9ytztwF[] = {
/* columns rows colors chars-per-pixel */
"64 64 157 2 ",
"   c #808682",
".  c #8D938F",
"X  c #919793",
"o  c #919891",
"O  c #929992",
"+  c #929894",
"@  c #939995",
"#  c #949995",
"$  c #949A96",
"%  c #959A96",
"&  c #959B97",
"*  c #959C95",
"=  c #979E97",
"-  c #969C98",
";  c #979D99",
":  c #989D99",
">  c #989F98",
",  c #989E9A",
"<  c #999E9A",
"1  c #999F9B",
"2  c #9A9F9B",
"3  c #99A099",
"4  c #9AA19A",
"5  c #9BA29B",
"6  c #9AA09C",
"7  c #9BA19D",
"8  c #9CA19D",
"9  c #9CA39C",
"0  c #9CA29E",
"q  c #9DA29E",
"w  c #9DA39F",
"e  c #9EA39F",
"r  c #9EA59E",
"t  c #9FA69F",
"y  c #9EA4A0",
"u  c #9FA4A0",
"i  c #9FA5A1",
"p  c #A0A5A1",
"a  c #A0A6A2",
"s  c #A1A6A2",
"d  c #A1A7A3",
"f  c #A2A7A3",
"g  c #A1A8A1",
"h  c #A2A9A2",
"j  c #A3AAA3",
"k  c #A2A8A4",
"l  c #A3A8A4",
"z  c #A3A9A5",
"x  c #A4A9A5",
"c  c #A4ABA4",
"v  c #A4AAA6",
"b  c #A5AAA6",
"n  c #A5ABA7",
"m  c #A6ABA7",
"M  c #A5ACA5",
"N  c #A6ADA6",
"B  c #A7AEA7",
"V  c #A6ACA8",
"C  c #A7ACA8",
"Z  c #A7ADA9",
"A  c #A8ADA9",
"S  c #A8AFA8",
"D  c #A8AEAA",
"F  c #A9AEAA",
"G  c #A9AFAB",
"H  c #AAAFAB",
"J  c #A9B0A9",
"K  c #AAB1AA",
"L  c #ABB2AB",
"P  c #AAB0AC",
"I  c #ABB0AC",
"U  c #ABB1AD",
"Y  c #ACB1AD",
"T  c #ACB3AC",
"R  c #ACB2AE",
"E  c #ADB2AE",
"W  c #ADB3AF",
"Q  c #AEB3AF",
"!  c #ADB4AD",
"~  c #AEB5AE",
"^  c #AFB6AF",
"/  c #AEB4B0",
"(  c #AFB4B0",
")  c #AFB5B1",
"_  c #B0B5B1",
"`  c #B0B7B0",
"'  c #B0B6B2",
"]  c #B1B6B2",
"[  c #B1B7B3",
"{  c #B2B7B3",
"}  c #B1B8B1",
"|  c #B2B9B2",
" . c #B3BAB3",
".. c #B2B8B4",
"X. c #B3B8B4",
"o. c #B3B9B5",
"O. c #B4B9B5",
"+. c #B4BBB4",
"@. c #B4BAB6",
"#. c #B5BAB6",
"$. c #B5BBB7",
"%. c #B6BBB7",
"&. c #B5BCB5",
"*. c #B6BDB6",
"=. c #B7BEB7",
"-. c #B6BCB8",
";. c #B7BCB8",
":. c #B7BDB9",
">. c #B8BDB9",
",. c #B8BFB8",
"<. c #B8BEBA",
"1. c #B9BEBA",
"2. c #B9BFBB",
"3. c #BABFBB",
"4. c #B9C0B9",
"5. c #BAC1BA",
"6. c #BBC2BB",
"7. c #BAC0BC",
"8. c #BBC0BC",
"9. c #BBC1BD",
"0. c #BCC1BD",
"q. c #BCC3BC",
"w. c #BCC2BE",
"e. c #BDC2BE",
"r. c #BDC3BF",
"t. c #BEC3BF",
"y. c #BDC4BD",
"u. c #BEC5BE",
"i. c #BFC6BF",
"p. c #BEC4C0",
"a. c #BFC4C0",
"s. c #BFC5C1",
"d. c #C0C5C1",
"f. c #C0C6C2",
"g. c #C1C6C2",
"h. c #C1C7C3",
"j. c #C2C7C3",
"k. c #C2C9C2",
"l. c #C3CAC3",
"z. c #C2C8C4",
"x. c #C3C8C4",
"c. c #C3C9C5",
"v. c #C4C9C5",
"b. c #C4CAC6",
"n. c #C5CAC6",
"m. c #C5CBC7",
"M. c #C6CBC7",
"N. c #C5CCC5",
"B. c #C6CCC8",
"V. c #C7CDC9",
"C. c #C8CECA",
"Z. c #C9CFCB",
"A. c #CAD0CC",
"S. c #CBD0CC",
"D. c #CBD1CD",
"F. c #CCD2CE",
"G. c #CDD3CF",
/* pixels */
"7.<.7.r.r.<.<.r.$.p.7.r.r.:.p.7.0.3.0.3.0.3.0.3.0.3.>._ E s s { >.<.<.r.r.r.<.<.p.$.r.r.<.7.<.r.7.7.7.:.:.:.7.p.7.7.7.7.7.7.7.7.",
"7.<.<.r.r.<.7.r.<.r.o.<.<.:.7.$.3.0.3.0.3.0.3.0.3.3.3.>.>.C x _ <.<.<.r.<.<.<.r.7.:.:.r.:.:.r.<.<.7.r.p.p.7.7.:.7.7.7.7.7.7.7.7.",
"7.7.<.7.7.<.<.<.:.p.r.p.7.$.h.h.0.3.0.3.0.3.0.3.>.>.>.>.O.H C E 3.3.<.<.<.r.r.3.:.<.) <.o.R p.:.r.r.7.<.:.:.7.r.7.7.7.7.7.7.7.7.",
"r.<.<.<.<.:.:.:.P $.o.p.r.:.p.7.3.0.3.0.3.0.3.0.3.3.>.E { H E 3.3.3.3.<.<.<.<.r.o.7.v o.' D h.' z.h.7.:.:.7.7.7.7.7.7.7.7.7.7.7.",
"<.7.<.:.:.:.o.' ' $.' z.A.h.7.' 0.3.0.3.0.3.0.3.e.x.3.>.>.>.O.e.<.r.<.<.<.<.r.r.$.7.Z o.) Z p.) Z.n.p.p.r.7.:.:.7.7.7.7.7.7.7.7.",
"<.r.7.<.:.$.) D P $.r.V.z.o.$.:.3.0.3.0.3.0.3.0.>.e.3.3.e.>.>.3.r.<.r.<.<.<.<.<.<.<.D ' P D <.D A.z.:.) ) o.:.:.7.7.7.7.7.7.7.7.",
"7.7.r.<.:.$.R k @ w k ) P a P :.0.3.0.3.0.3.0.3.{ 3.>.>.e.3.>.>.<.r.r.<.<.<.<.<.7.o.R Z k k v 7 7.o.Z k Z ' <.r.7.7.7.7.7.7.7.7.",
"7.r.7.<.:.$.P y 7 .   , o.<.h.<.3.0.3.0.3.0.3.3.>.3.3.>.e.0.3.e.<.<.<.r.r.<.<.<.<.R P a - w & . w y Z o.r.p.r.:.7.7.7.7.7.7.7.7.",
"p.7.:.<.<.$.P a y Z - & :.z.<.:.3.3.3.3.3.3.3.>.e.3.3.3.3.3.3.3.r.<.<.7.<.r.<.<.<.r.$.D a k y - X o.A.G.z.7.r.7.7.7.7.7.r.7.:.:.",
"7.<.<.<.:.o.o.' P D - @ v ' ) o.e.3.3.3.e.e.3.3.e.3.3.3.e.e.e.>.r.<.7.<.<.r.7.<.$.' ' D Z Z v a X Z <.$.) o.:.r.:.7.r.7.7.7.7.p.",
":.7.7.<.o.' $.<.<.R a w k P ) $.e.3.3.3.3.e.0.3.3.3.r.3.e.e.3.>.r.<.<.<.<.<.$.$.$.' ' <.:.) v y - k P P P o.7.7.<.7.7.:.$.$.7.p.",
"<.r.p.<.o.' ' :.$.Z Z R ) ' <.<.0.3.>.>.3.3.3.3.>.3.e.e.3.>.3.e.<.r.<.<.<.<.$.$.$.' $.n.n.:.Z a y Z D ) o.7.7.7.7.7.r.$.) ) $.7.",
"7.<.7.7.:.o.' ' R y k ) o.o.<.<.e.3.>.>.3.3.3.3.3.E { d.e.>.3.n.r.<.<.<.<.<.$.$.' R ' h.n.<.P D v D P ' :.7.7.:.7.7.7.:.) R $.7.",
":.:.:.<.7.<.$.) P Z v D ' $.:.<.e.0.3.3.3.0.e.3.3.s < E e.e.3.3.<.r.<.<.<.<.<.$.<.) P ' $.R D P ) R ) ' :.<.7.<.<.7.7.:.$.$.7.p.",
"$.:.:.<.7.r.<.$.R :.' R $.:.$.p.3.3.3.0.0.e.3.3.{ s : q E e.3.>.r.<.<.7.r.<.<.<.r.$.' R D v k v ' o.o.:.<.7.r.7.<.7.7.r.7.7.7.p.",
"<.7.7.7.7.7.<.:.Z p.r.o.7.<.$.p.3.3.3.3.3.3.3.>.{ >.E s C 3.x.q.r.<.7.<.<.r.r.<.<.:.o.' R D D D R ) :.7.7.7.:.7.7.7.7.r.7.7.:.:.",
"7.r.3.3.3.3.r.3.3.3.3.3.3.3.3.3.q.3.q.q.5.q.,.,.+.! B ! &.q.5.,.3.3.3.3.3.3.3.3.3.e.3.{ E H { 3.P ) :.7.7.:.7.r.7.7.7.7.7.7.7.7.",
"3.<.3.3.3.3.3.3.e.e.3.e.3.3.3.3.q.q.,.q.q.5.5.,.,.} ^ +.,.,.,.,.3.3.e.e.3.3.3.3.3.e.e.3.{ E >.3.' :.7.7.7.<.7.7.7.7.7.7.7.7.7.7.",
"r.3.3.3.3.3.r.3.e.3.e.3.3.3.3.3.5.5.5.,.q.q.,.,.q.*.*.,.q.,.5.q.3.3.e.3.3.e.e.e.3.e.e.e.>.{ 3.e.:.7.7.<.7.7.7.7.7.7.7.7.7.7.7.7.",
"3.3.3.3.3.3.3.3.3.3.3.3.3.3.3.3.q.,.,.q.5.q.,.,.q.&.q.,.q.+.5.q.3.3.3.3.3.3.e.3.3.3.3.3.3.3.3.e.7.7.7.<.7.r.7.:.7.7.7.7.7.7.7.7.",
"3.3.3.3.3.3.r.3.3.3.3.3.3.3.3.3.q.5.,.q.,.q.,.,.&.^ ,.} q.} q.y.e.3.3.3.3.3.3.3.e.>.{ { 3.e.e.3.<.7.r.<.7.p.p.:.7.7.7.7.7.7.7.7.",
"3.r.3.3.3.3.3.3.3.e.e.e.3.3.3.3.,.,.,.5.q.,.,.,.} J &.L q.^ u.u.x.e.3.3.3.e.e.3.x.>.E { 3.e.3.3.<.r.7.:.<.p.p.7.7.7.7.7.7.7.7.7.",
"e.3.3.3.3.3.r.3.3.e.e.3.3.e.3.3.q.,.,.,.5.5.,.*.^ B | B q.^ k.k.3.>.{ >.>.3.3.3.e.3.>.>.3.e.3.3.:.7.7.o.) $.7.7.7.7.7.7.7.7.7.7.",
"e.3.3.3.3.3.3.3.3.3.3.3.3.3.3.3.q.,.,.,.5.5.,.&.+.B | c y.^ N.k.>.{ E E >.3.3.>.3.e.e.3.e.3.3.e.:.7.:.P Z ) :.7.7.7.7.7.7.7.7.7.",
"e.>.>.>.E { x.e.>.>.>.3.e.3.3.3.q.q.q.5.,.&.^ L B h M g = B ,.+.< C { 3.3.3.3.e.3.e.>.{ E >.3.3.7.<.$.) R ) :.p.$.7.:.) ' p.h.7.",
"3.>.3.{ s < C E >.>.3.3.3.3.3.3.,.,.,.q.q.q.,.,.*.c t g > o > c x.n.x.x.e.3.>.3.3.3.3.>.>.3.e.3.7.7.:.:.o.o.<.p.r.:.' P o.7.7.) ",
"3.e.3.{ C # % H >.3.e.e.3.3.3.3.q.q.,.,.,.&.+.+.*.L c c c * O t Z.n.d.e.e.e.3.3.3.e.e.e.3.e.e.3.:.7.7.7.:.:.7.7.7.7.o.Z y y P 7.",
"e.3.{ { { C q H >.3.3.3.e.3.3.3.5.,.,.&.+.+.^ ! B ,.+.J L M 4 4 >.{ { { >.3.e.e.3.3.e.e.e.e.3.3.<.7.r.7.7.7.7.7.<.<.:.R y - v 7.",
"3.3.{ { >.H s E >.3.e.3.3.3.e.e.,.*.,.,.,.,.| ^ h ,.y.&.| M = > A Y E >.>.3.3.e.3.3.e.3.3.r.3.3.7.7.7.7.<.7.7.7.7.o.' :.$.) Z D ",
">.e.e.>.{ H C >.3.3.e.3.3.3.3.3.,.,.,.q.,.+.~ J J ^ *.u.,.h 4 B C H >.3.3.3.0.3.e.3.3.3.3.<.3.r.7.7.7.:.:.7.7.7.p.:.' ' ) P ) $.",
"3.e.x.3.E E >.>.3.e.e.e.3.3.e.e.q.q.,.,.&.| L B ^ N L &.^ M B ^ E E { >.e.e.e.3.e.3.3.r.r.<.<.r.7.7.<.7.7.7.7.7.<.7.<.) k Z o.z.",
"e.>.3.>.E 3.x.>.e.3.3.3.3.3.3.e.q.5.,.5.,.,.,.+.&.L B h 4 B } M 3.>.{ >.3.e.3.3.3.>.3.e.e.3.<.r.<.7.7.7.p.7.7.<.<.r.7.7.7.<.7.:.",
"3.3.e.e.3.>.3.x.3.e.e.e.e.3.3.3.<.<.<.7.7.<.$.$.D o.R k v D D R >.>.3.3.e.e.3.3.e.0.3.3.3.3.3.3.3.r.3.3.r.<.r.r.<.<.r.<.r.r.r.<.",
"3.3.e.e.e.3.>.e.3.3.3.e.3.3.3.3.7.<.r.r.7.<.<.:.' $.) v D P R ' >.>.3.3.0.3.3.3.3.0.e.0.e.e.3.3.3.3.r.3.<.<.<.<.<.7.<.<.r.<.<.<.",
"3.3.e.e.e.3.3.3.3.3.e.e.3.3.3.e.7.7.7.7.7.7.<.r.$.$.' R ' ' R :.>.>.>.3.e.3.3.3.3.3.e.e.3.3.>.>.<.r.<.3.<.r.r.<.r.r.r.r.<.<.<.r.",
"3.3.3.3.3.3.3.3.>.>.3.e.3.>.3.e.r.7.7.7.7.7.7.r.r.<.' ' <.$.' <.>.>.3.3.3.0.3.3.0.0.0.3.3.{ E E r.<.<.r.r.<.<.r.<.r.r.<.$.$.<.<.",
"3.3.3.3.3.3.3.>.H E { 3.e.3.3.3.7.<.7.7.<.7.r.r.r.<.$.$.r.<.$.r.3.3.0.3.0.3.0.3.e.0.0.3.3.{ E E <.<.r.<.<.r.<.<.$.<.<.$.$.' $.<.",
"e.e.3.3.3.e.3.>.s s C { 3.3.3.3.<.r.7.7.r.<.<.7.r.7.<.<.r.<.$.r.3.0.3.0.3.0.3.0.0.3.0.0.3.3.>.>.<.r.<.r.r.<.r.<.r.r.r.r.:.$.<.r.",
"3.e.e.3.3.3.3.{ H s s E 3.e.3.e.<.7.7.r.r.<.<.<.:.r.7.<.7.r.<.r.e.e.0.3.0.3.0.3.3.3.e.e.0.0.3.3.r.r.<.<.<.<.r.r.r.7.p.r.r.r.r.r.",
"3.3.3.>.3.e.3.{ >.H C { 3.e.3.3.<.7.<.7.<.<.$.:.' r.r.$.:.r.<.<.e.0.3.0.3.0.3.e.0.e.3.3.3.3.3.3.<.<.r.<.<.r.<.<.<.<.<.<.<.r.<.$.",
"e.3.3.e.3.3.3.e.{ { >.>.3.3.e.e.r.r.r.<.<.$.' ' ' h.n.r.o.<.r.<.3.3.3.3.0.3.{ _ e.3.3.0.3.e.3.3.o.o.$.$.<.p.h.r.<.r.<.r.<.<.<.r.",
"e.3.3.e.3.e.3.3.>.3.3.3.3.3.3.3.r.<.7.<.<.' Z a D ' $.R R $.r.p.3.3.3.3.e.3.>.O.0.3.0.3.0.e.e.e.R ' R ) <.n.h.<.<.<.r.r.<.<.<.$.",
"3.3.3.3.e.3.e.3.e.3.3.e.e.3.3.3.<.7.<.7.<.' v , , w R $.r.<.7.<.0.e.3.e.e.0.3.3.3.3.3.3.3.3.3.>.o.' R D $.h.h.' R ' $.<.r.<.<.<.",
"3.e.e.3.3.3.e.3.e.e.e.e.3.e.e.3.<.<.<.<.<.$.' D , w D r.h.r.<.<.0.e.3.3.0.0.0.0.e.e.3.3.3.>.>.{ R Z w , w D D D o.$.<.r.<.7.<.7.",
"3.e.e.3.3.3.e.3.3.3.3.e.3.r.3.r.7.<.<.<.$.$.$.<.D a v R ' $.<.h.3.3.3.3.3.0.e.e.e.e.0.e.e.3.>.>.R k , , , w D r.r.h.h.r.r.<.<.<.",
"3.3.3.3.e.3.e.3.3.3.3.3.3.3.3.3.<.7.r.<.' ' $.<.D D C R $.>.<.h.3.3.3.3.3.3.3.0.>.>.>.3.0.3.>.>.<.' D Z w , R n.<.<.<.<.<.<.r.r.",
"e.3.3.e.3.e.3.3.3.3.3.3.r.3.3.<.<.r.7.<.$.' ' ' v D ' <.r.r.r.3.3.3.e.e.3.3.3.0.O.>.>.>.3.>.{ { o.7.:.Z , & a D R ' $.$.<.r.r.r.",
"e.3.3.e.3.3.3.e.3.3.e.r.e.3.r.<.$.<.r.r.<.$.R D D E $.$.<.<.e.e.3.e.e.e.3.3.3.3.e.e.3.0.0.3.O.{ ) z.n.) a D R D $.<.7.r.r.<.<.:.",
"e.r.3.3.<.7.<.<.<.r.r.<.<.r.h.<.3.3.e.e.e.3.>.{ >.3.>.3.3.3.3.3.e.3.3.3.3.e.3.3.x.e.e.e.3.>.>.>.$.$.' R H H { >.E { 3.3.3.3.3.3.",
"<.<.<.r.<.r.r.r.r.<.r.r.<.<.r.$.3.e.e.e.3.3.3.>.3.>.>.3.3.3.3.e.e.e.e.3.3.3.3.e.3.3.e.3.3.3.>.3.' R H C C H { 3.3.3.3.e.e.e.e.e.",
"<.<.<.<.$.$.' ' <.$.<.h.r.<.7.<.e.3.e.3.e.3.e.3.>.3.3.3.3.3.3.3.3.3.3.3.3.3.3.e.3.3.3.3.3.3.e.3.{ ' H D H H { 3.3.3.3.>.>.3.e.e.",
"r.r.r.<.$.' R D $.<.n.h.:.<.r.r.e.3.3.3.3.3.e.3.3.3.3.3.3.3.e.e.3.3.3.3.3.3.3.3.3.3.3.3.3.3.3.3.3.>.{ ' E { >.>.3.3.3.>.>.>.3.3.",
"<.3.3.r.$.$.' R ' h.Z.r.R $.7.$.3.3.3.>.3.3.3.e.3.3.3.e.3.3.3.3.3.3.3.3.e.e.e.e.3.3.e.3.3.3.3.3.3.3.3.3.>.3.3.3.3.e.e.e.>.3.3.e.",
"<.<.<.<.$.R v v y D $.' D ' <.$.3.3.3.3.>.3.3.3.3.e.3.e.3.e.3.3.>.{ { { >.3.3.>.e.3.e.3.3.3.3.3.3.3.3.e.e.3.3.>.3.e.e.e.3.e.3.3.",
"<.<.3.$.' D a w & X a ' o.$.r.7.3.3.3.3.3.3.3.3.e.3.e.3.3.3.3.3.>.E C C { >.3.>.3.e.3.3.3.3.3.3.3.3.3.3.e.3.3.>.3.3.e.3.3.3.3.3.",
"<.r.r.r.<.' D v k & a p.n.r.r.r.e.e.e.3.3.3.e.3.e.e.e.3.e.3.3.3.3.{ s C { e.e.e.3.3.3.3.3.e.3.3.e.e.3.3.3.3.>.>.3.3.e.3.e.3.e.e.",
":.<.<.o.' ' ' R k y w v D ' :.r.3.3.3.3.e.3.3.3.e.3.3.3.3.3.3.3.>.{ E E { >.3.3.e.3.e.e.3.e.3.e.3.3.3.e.3.e.e.3.3.3.e.3.3.3.e.3.",
":.<.:.o.' <.p.n.P v Z D ' o.:.7.e.3.3.e.e.3.3.e.>.3.3.e.e.3.3.>.3.{ E { { 3.3.e.3.3.3.3.3.3.3.3.e.e.3.3.3.3.3.3.3.e.3.3.e.3.e.3.",
"<.7.<.' ' $.<.r.R D D ) $.:.:.<.e.3.e.e.3.3.e.e.3.3.3.e.e.e.3.3.3.3.>.{ 3.e.e.e.3.3.3.3.3.3.3.3.3.3.e.3.e.3.3.e.3.3.e.e.3.e.3.3.",
"<.r.7.$.o.' R Z v Z D o.:.<.<.r.e.3.3.3.e.3.3.>.e.e.3.3.>.3.e.e.3.3.>.3.3.e.e.3.e.3.e.e.e.3.e.e.3.e.3.3.e.3.3.e.e.3.3.3.3.3.3.e.",
"<.7.r.7.<.$.) Z Z Z P o.<.7.7.r.e.3.>.3.x.e.{ H { >.>.>.3.3.3.e.e.3.e.3.3.e.3.3.3.e.e.3.e.e.3.e.3.3.e.3.e.3.3.3.3.3.3.e.e.e.3.3.",
"r.r.r.<.<.$.' ) ' ' o.<.7.7.<.7.e.3.>.3.e.3.{ H s H { 3.e.e.3.3.3.3.3.3.3.3.3.3.3.3.3.3.3.3.3.3.e.3.e.3.3.3.e.3.e.e.3.3.3.3.3.e.",
"r.p.7.:.$.<.$.' r.<.:.<.r.<.7.r.3.3.3.3.3.>.{ { q C { e.e.3.3.3.3.3.3.e.3.3.3.3.3.3.3.3.3.3.3.3.3.e.3.3.3.e.3.e.3.3.e.3.3.3.3.e.",
":.<.7.<.r.p.r.<.p.<.<.7.<.<.<.7.3.e.e.3.>.{ >.3.H H >.3.>.3.3.e.3.3.3.e.3.3.3.3.e.e.3.e.e.3.e.e.3.3.3.e.3.e.3.3.3.e.3.3.e.e.3.3."
};
