/* XPM */
static char *de8af4bf944b4f1e9b83d58a688db580YaRf6LskNdh9vmC0[] = {
/* columns rows colors chars-per-pixel */
"64 64 141 2 ",
"   c None",
".  c #141313",
"X  c #181717",
"o  c #1C1A1A",
"O  c #211F1F",
"+  c #242222",
"@  c #292726",
"#  c #2E2B2A",
"$  c #322E2E",
"%  c #34302F",
"&  c #353231",
"*  c #3A3635",
"=  c #3C3837",
"-  c #3E3A39",
";  c #423D3D",
":  c #45403F",
">  c #464241",
",  c #4A4544",
"<  c #4D4847",
"1  c #4F4A49",
"2  c #524D4C",
"3  c #56504F",
"4  c #575150",
"5  c #5B5453",
"6  c #5F5857",
"7  c #5F5958",
"8  c #635C5B",
"9  c #67605F",
"0  c #68615F",
"q  c #6D6564",
"w  c #6F6866",
"e  c #706867",
"r  c #746C6B",
"t  c #786F6E",
"y  c #79716F",
"u  c #7C7472",
"i  c #807776",
"p  c #817977",
"a  c #867D7B",
"s  c #887F7D",
"d  c #8A807E",
"f  c #8D8482",
"g  c #908784",
"h  c #938987",
"j  c #958B89",
"k  c #998E8C",
"l  c #9C918F",
"z  c #9E9391",
"x  c #A19694",
"c  c #A49997",
"v  c #A69B99",
"b  c #A99D9B",
"n  c #ACA09E",
"m  c #AEA3A0",
"M  c #B2A5A3",
"N  c #B5A9A6",
"B  c #B7ABA8",
"V  c #BAAEAB",
"C  c #BDB1AE",
"Z  c #BFB2B0",
"A  c #C2B5B2",
"S  c #C7BAB7",
"D  c #CBBDBA",
"F  c #CFC1BE",
"G  c #D0C2BF",
"H  c #D3C5C2",
"J  c #D7C8C5",
"K  c #D8CAC7",
"L  c #DDCECB",
"P  c #DCCDCA",
"I  c #DECFCC",
"U  c #DFCFCC",
"Y  c #DDCECB",
"T  c #DFD0CD",
"R  c #DFD0CD",
"E  c #E0D0CD",
"W  c #E0D1CE",
"Q  c #E1D1CE",
"!  c #E0D2CE",
"~  c #E1D2CF",
"^  c #E2D2CF",
"/  c #E0D1CE",
"(  c #E2D3D0",
")  c #E3D3D0",
"_  c #E3D4D0",
"`  c #E3D4D1",
"'  c #E5D5D2",
"]  c #E5D6D2",
"[  c #E5D6D3",
"{  c #E6D6D3",
"}  c #E6D7D4",
"|  c #E4D5D2",
" . c #E7D8D4",
".. c #E8D8D5",
"X. c #E8D9D5",
"o. c #E9D9D6",
"O. c #EADAD7",
"+. c #E9DAD6",
"@. c #ECDCD8",
"#. c #ECDCD9",
"$. c #EDDDDA",
"%. c #EEDEDA",
"&. c #EEDEDB",
"*. c #EFDFDB",
"=. c #EEDEDB",
"-. c #F1E0DD",
";. c #F1E1DE",
":. c #F2E2DE",
">. c #F3E3DF",
",. c #F1E0DD",
"<. c #F5E4E0",
"1. c #F5E4E1",
"2. c #F5E5E1",
"3. c #F6E6E2",
"4. c #F7E6E2",
"5. c #F5E4E1",
"6. c #F8E8E4",
"7. c #F9E8E4",
"8. c #F9E9E5",
"9. c #FAE9E5",
"0. c #FAEAE6",
"q. c #FBEAE6",
"w. c #FBEAE7",
"e. c #FBEBE7",
"r. c #FCEBE7",
"t. c #FAEAE6",
"y. c #FCECE8",
"u. c #FDECE8",
"i. c #FDECE9",
"p. c #FDEDE9",
"a. c #FEEDE9",
"s. c #FEEDEA",
"d. c #FFEEEA",
"f. c #FFEFEB",
"g. c #FFEEEA",
"h. c #FFF0EC",
"j. c #FFF1ED",
"k. c #FFF2EE",
"l. c #FFF3EF",
"z. c #FFF1ED",
"x. c #FFF4F0",
/* pixels */
"                                                                                                                                ",
"                                                                                                                                ",
"                                                          * & o o o o o o o o o                                                 ",
"                                                        * * $ o o o o X X o o o                                                 ",
"                                                        2 5 2 ; ; - * = = & + +                                                 ",
"                                                    o o j 5.*.$.@.K D F G V 2 > @ o o                                           ",
"                                                    o X k x.d.f.d.} I W W S 2 , @ o o                                           ",
"                                                o # j c J d.d.d.7.D N D I J b x 5 & % o o o o                                   ",
"                                                o # I x.f.d.d.d.w.N k V U U W W u > * X X o o                                   ",
"                                                o # Y f.f.d.d.d.w.N l N H G D D f e 8 < , # + O                                 ",
"                                                o # P f.d.d.d.d.w.N z x x z f f H 7.3.3.~ 7 , # o o                             ",
"                                                o # K f.d.d.d.f.w.N l z z k s s K f.d.d.=.7 , # o o                             ",
"                                  o o o o o X 5 M V :.f.d.d.9.O...G D N z z k j v m F d.#.8 , - = & o o                         ",
"                                  X X X X X . 8 x.x.f.d.f.f.9.I P U W A z z z z f p m j.=.8 , , < - o o                         ",
"                                2 5 5 4 5 5 4 f r.d.d.d.-.' W D F K W C k k z z f a v R F 6 , , , - o o                         ",
"                        , , , > j e.9.9.9.9.9.e.f.d.d.f.D x x z x G W B a d l z f d d d a 2 , , < ; o o                         ",
"                        , , < , l h.d.d.7.d.y.d.f.r.f.f.D z x x x F W B a f l l g a a s i 2 , , , - o o                         ",
"                    , , , < n F _ d.3.Z V B N F f.r.f.f.( D D D F P W B a s f f h k h a i 2 , , , > - - + o                     ",
"                  , , , > < G j.j.d.:.v l l k V f.f.r.f.*.W W I I I U B a s s a k x j s i 2 : , , , < , + o o                   ",
"                  , , 4 p d W j.7.3. .v z N C H r.f.f.f.( S H } o.W U N a a a s h j j f s 9 6 2 , , , > + o o                   ",
"                  , , w >.d.d.d.:.R J c z P d.d.f.f.f.f.D l N e.r...U B a a s a a a f z l f a 8 , , , > + o o                   ",
"                  1 1 t 3.d.d.d.*.K H c z P j.d.r.r.r.f.S k N e.r.} W B a s s s s s g l k s s 8 , , , , + o o                   ",
"              , , l P R r.d.$.[ D n b z z P j.3.} } [ } Z l m ( ' W I B a s k k k k f t u a s 8 , , , > + o o                   ",
"              , , v j.d.d.d.} I A z z z z P d.3.I I I I V l n P I I W B a f l z x x g e e a s 8 > , , > @ o o                   ",
"              , , v j.d.d.d.[ I N u a Z S O.f.+.C C A S Z N A Y I I U B a s j j j j s e e a s e 8 5 , , @ o o                   ",
"              , > b j.d.d.e.} W x > 8 $.f.f.f.K a s k z Z W R I I I W N a s a a a s i e r p s s s r < > + o o                   ",
"              , > b j.d.d.d._ P z , 8 } 6.e.f.P f f z x Z K J J K Y I V f f s s f f i e e i a s f r , , @ o o                   ",
"              , > b j.d.d.d.Z v f q r c m ( f.*.H H H H m j j j k D W K F S f a B H M e e r r s z a < , : : $ o o               ",
"              , > b j.d.f.d.N z f w t k z I f.1.I R W W m a a a s D U I W F f a A ( B q e e e s x s < , , < % o o               ",
"              , > b j.r.-.$.D V k w r g j K f.1.I P C N x f j f j D W I I J M M F W D c x s a f j i , , , , % X o               ",
"              , > v x.7.I I I ( M w e p a H f.1.I K j p j z z z x F W I I W W U W I U W K v z g a t < , , < & o o               ",
"              5 5 b 3.*.R I I W M w r a a H f.*.J D j a h z z z x F W K H H J J J J K I K v z j h u < , , , % o o               ",
"          , 2 N F V v N K R R R m w r d d Z ` F g f d d d d f l x F W V g j x c v c B U K v l A H M < , , < $ o o               ",
"          , 3 S _ C k n P R R R m w r u d Z ! Z d a a d a d f z x F ( N a f z z z l N U P v x S ) B < > , , & o o               ",
"          , 1 v C A H H R P C m j w r d d z m c g j j g f a f l x F W V g j g h k x v V M t 9 h M l q 0 2 , $ o o               ",
"          , 1 f l H l.0.R P l a u w r u d d a f z z z z j u f z x F W A z l s a h x x x h > & 8 s s s s 4 , % o o               ",
"          , 1 k n F =. .H F k a u 9 q u a f j l v v z z k j k k z D U A k k f s h k l k h 2 > 9 u i s p 4 , & + O               ",
"    , , , , 2 Z P C v z f f d d q = < u d V J K K J n z C K A f f D ( B s f k z g s s f s p i 5 ; 2 a a 4 , > > ; O O           ",
"    , , , , 2 A ! C z k d a a a q * , u d C R R R K c z Z _ S d s D ( N p f z z f a s s s s s 5 & < a p 3 > < < ; o o           ",
"    , , 8 c b _ 5.Z g f a d a d 9 * < m V H R R R J n z n V n d s x m p 5 8 k z k h g s s h h u 8 r a a r e 5 , ; O o           ",
"    , , r I _ e.l.Z a a a d d d 9 & 2 F R R R R R K n z z z k d s a a 8 & , j x l x j s s k x h s s s s s s q , ; o o           ",
"    - - e P I [ } B d f a a u t 6 * 1 F R H D F H F z k k k j f f s s w 2 5 k z z z j f g l l h f s y t p s 0 , ; O o           ",
"    o o 4 P K l d j z j d p 1 = = * 1 F R v d g z z d d d d d l l f a f k k z z z z l z z z x l z s < 2 u d q > ; o o           ",
"    o o 2 K K k a j z k d a 1 = = * 2 F R c a g z k d a d d d l z f a g z z z z z z z z l x l l z s < < u d 0 < ; O o           ",
"    o o ; x x f a f f f a a 1 & 1 q r z c l j j d f d d g k k z z k j u 5 8 f f g g h x l g g k x j p p h k e , > = * @ o       ",
"    o o - a a a a d a d d d 1 * 5 d d a a j z j d a d a j z z z z z x e & : u a s p g l l s s h z z x x x x t > , < , @ o o     ",
"    o o & r u p a a d a r r < * 5 d a d d z m n z l d a j l z z z z z u < 5 k x h g k m b f s h x k z k s p q > , , > @ o o     ",
"    o o @ , 1 u d a a y < < - * 4 d a a d C R P R H j d j l z z z z z h p j J Y M k M U J h a h x x x k 2 = ; , , , , @ o o     ",
"    o o @ , 2 u p a s u 1 < ; * 5 d a d d C R R P J j a j l l l z z z h a j J R N l N P H j d j k l x k 2 * ; , , , , @ o O     ",
"    o o & r r 8 5 r d p r r < & 5 a g C S J R D z l l j h d g f f f f d a j J R M l N R P D S a 2 8 f s 3 ; > , , , > @ X o     ",
"    o o = s p 2 > q s s d a 1 * 5 d j J ~ ~ ~ A d d l z g d a d d a d a a j J R M z N R W R W u & < a p 3 , , , , , > @ o o     ",
"    o o & e e 2 > 6 r r a p 2 & 5 a g Z D A A n r r h j g d u r r u a a a g C Z c j c A A P R p = < e r 2 , , , > ; = @ o       ",
"    o o + ; ; > , < > 5 a a 1 * 5 d d l z g d r , < u d a d y < < y f a a a a a a s a s f H R a > , , , , , < , ; o o           ",
"    o o + - - > > > > 2 u p < & 4 a d l z f d t < 2 u a a p t 1 1 y d d f d f f s a a p f S P a > , , , , , , > ; O o           ",
"          + + + + @ + @ $ $ + + * 4 8 k z l l f y y a d q 3 6 t u u a c D F D D z a t 4 4 q q 4 , , , > < , & + +               ",
"          o o o o X o o o X o o # , 2 j x z z l d d a d 9 : 3 a d a a m R R R R c a r , , > > > , , < < , < & o o               ",
"          o o o o o o o o o o o # < 2 t u u u u a a a d r 8 q a d z n Z R R R R h w 8 , , , , , , > * * & * # o                 ",
"                            o o # , , , , , , 6 a d d d a d a a f F ! R R R R P u > > , , , , , , - o o o o o                   ",
"                            o o # > > , > : : 4 u u u u u u u u u C F F F F F F r ; > > > > > : > - o o o o                     ",
"                                O + + + + + + + # # # # # # # # # * = = = = = * @ + + + + + + + + +                             ",
"                                  o o o o o o o o o o o o o o o o X o o X o X o o o o o o o o o o o                             ",
"                                  o o o o o o o o o o o o o o o o o o o o o o o o o o o o o o o o                               ",
"                                                                                                                                ",
"                                                                                                                                "
};
