/* XPM */
static char *_789c632d12048e7c3b6555c9012757fboufeBPfSVGAhc6G[] = {
/* columns rows colors chars-per-pixel */
"64 64 132 2 ",
"   c None",
".  c #121127",
"X  c #131128",
"o  c #141129",
"O  c #15102C",
"+  c #16112C",
"@  c #16112D",
"#  c #15122C",
"$  c #14132C",
"%  c #15132C",
"&  c #15122D",
"*  c #14122E",
"=  c #14132E",
"-  c #15132E",
";  c #16132E",
":  c #16132F",
">  c #14142F",
",  c #16142F",
"<  c #161430",
"1  c #151935",
"2  c #151A34",
"3  c #151B36",
"4  c #1E1B36",
"5  c #3A1329",
"6  c #3E1A2B",
"7  c #201D37",
"8  c #4C1C29",
"9  c #792324",
"0  c #1B2841",
"q  c #1B2941",
"w  c #1E3148",
"e  c #35344B",
"r  c #3E3149",
"t  c #39384F",
"y  c #3A3950",
"u  c #3C3B51",
"i  c #413F55",
"p  c #0D4C68",
"a  c #0B5673",
"s  c #6F5468",
"d  c #605B6E",
"f  c #645E71",
"g  c #655E71",
"h  c #736D7E",
"j  c #9B1119",
"k  c #9C1119",
"l  c #A51117",
"z  c #A61117",
"x  c #A61217",
"c  c #A51118",
"v  c #A61218",
"b  c #A71218",
"n  c #A91318",
"m  c #AA1318",
"M  c #B81A18",
"N  c #C72118",
"B  c #C72218",
"V  c #CD2418",
"C  c #CD2518",
"Z  c #D0301A",
"A  c #EF3417",
"S  c #E43318",
"D  c #EB3318",
"F  c #ED3418",
"G  c #EF3518",
"H  c #EF3619",
"J  c #F03518",
"K  c #F04122",
"L  c #F14626",
"P  c #F35431",
"I  c #F45836",
"U  c #F8734C",
"Y  c #F8764E",
"T  c #F97850",
"R  c #FEB143",
"E  c #FFB643",
"W  c #FFB743",
"Q  c #057B99",
"!  c #047F9D",
"~  c #39919E",
"^  c #0487A4",
"/  c #0389A6",
"(  c #0488A5",
")  c #018DAC",
"_  c #028EAD",
"`  c #038FAD",
"'  c #048FAD",
"]  c #0390AE",
"[  c #0590AD",
"{  c #0690AD",
"}  c #0790AD",
"|  c #0A92AE",
" . c #0B93AE",
".. c #0C93AE",
"X. c #0C94AE",
"o. c #1397AF",
"O. c #1799B0",
"+. c #3A96A2",
"@. c #3C99A5",
"#. c #3C9BA7",
"$. c #249FB2",
"%. c #25A0B2",
"&. c #2DA4B4",
"*. c #2FA5B4",
"=. c #31A6B5",
"-. c #34A7B5",
";. c #35A8B5",
":. c #37A9B6",
">. c #38AAB6",
",. c #39AAB6",
"<. c #3AAAB6",
"1. c #3EADB7",
"2. c #41ABB4",
"3. c #41AEB8",
"4. c #42AFB8",
"5. c #43AFB8",
"6. c #43B0B8",
"7. c #81808F",
"8. c #B8AEB8",
"9. c #C0B6BF",
"0. c #C2B8C1",
"q. c #C3B9C2",
"w. c #CCC3CB",
"e. c #CCCBD1",
"r. c #D3CCD2",
"t. c #D0CFD5",
"y. c #D6D6DA",
"u. c #EDEAEC",
"i. c #F1F2F3",
"p. c #F4F2F4",
"a. c #F4F3F4",
"s. c white",
/* pixels */
"                                                            , , , ,                                                             ",
"                                                          , ` ` 4.4.,                                                           ",
"                                                        $ ] ` 4.` 4.4.,                                                         ",
"                                                      @ ( ` 6.) 6.4.4.4.@                                                       ",
"                                                      a ] ` O.&.O.4.4.4.~                                                       ",
"                                                    1 ^ ` ,...,.4.4.4.4.2.0                                                     ",
"                                                    1 ` ` ` 4.` 4.4.4.4.6.0                                                     ",
"                                                  , ' ` ` 4.` 4.4.4.4.4.4.4.,                                                   ",
"                                                  , ] ] ] [ 4.' 4.6.6.4.6.6.,                                                   ",
"                                                  , x b c c c c c c c c b b ,                                                   ",
"                                                , c n B F F J J J F T J T T T ,                                                 ",
"                                                , c c n c c c c b b b c c c c <                                                 ",
"                                              , [ ` ` ` ` 4.` 4.6.6.4.4.4.4.4.4.,                                               ",
"                                              , ] ] `  .=.o.=.4.6.6.4.4.4.4.4.4.,                                               ",
"                                            . ! ` ` ` [ ;. .,.4.1.4.4.4.4.4.4.4.#.X                                             ",
"                                            , ` ` ' ' %.[ 4.` 4.6.6.4.4.4.4.4.4.6.,                                             ",
"                                            , ` ` ` ` ` 1.` 6.4.4.4.4.4.4.4.4.4.4.,                                             ",
"                                            , ` ` ` ` $.[ @ , , , , , , 4.4.4.4.4.,                                             ",
"                                            , ` ` ` ` ` 3 0.0.s.s.s.s.s.w 4.4.4.4.,                                             ",
"                                            , ` ` ` ` p 8.0.< < , , , s.e.@.4.4.4.,                                             ",
"                                            , ` ` ` / h 0.@ , s.s., , , s.e 4.4.4.,                                             ",
"                                            , ` ` ` 4 0.4 , s., , , , , i s., 4.4.,                                             ",
"                                            , ` ` ` 4 f u t., , , , u , , y., 4.4.,                                             ",
"                                            , ` ` ` 4 f i.> , , , , t , , y., 4.4.,                                             ",
"                                            , ` ` ` 4 f i.@ < , s.s., , , y., 4.4.,                                             ",
"                                            , ` ` ` 4 f , , , , s.s., , , y., 4.4.,                                             ",
"                                            , ` ` ` 4 0.4 , , , , , , , i s., 4.4.,                                             ",
"                                            , ` ` ` / h 0., , , , , , , s.e 4.4.4.,                                             ",
"                                            , ` ` ` ` p 8.0., , , , , s.e.@.4.4.4.,                                             ",
"                                            , ` ` ` ` ` 3 0.0.s.s.s.s.s.w 4.4.4.4.,                                             ",
"                                            , ` ` ` ` ` ` @ @ @ @ > @ @ 4.4.4.4.4.,                                             ",
"                                            . Q ` ` ` ` ;...;.6.4.4.4.4.4.4.4.4.+..                                             ",
"                                              , ` ` ` ` -.X.;.4.4.4.4.4.4.4.4.4.,                                               ",
"                                              , ` ` ` ` ' 4.[ 4.4.4.4.4.4.4.4.4.,                                               ",
"                                                < ` ` ` ` ` 4.4.4.4.4.4.4.4.4.,                                                 ",
"                                                , ` ` ` ` 4.` 6.4.4.4.4.4.4.4.,                                                 ",
"                                                , ` ` ` ' ' 4.[ 4.4.4.4.4.4.4.,                                                 ",
"                                                  , c c c c c c c c c c x x ,                                                   ",
"                                                  , c C n F J F J J F T K T ,                                                   ",
"                                                  , x x x x x x x x x x x x ,                                                   ",
"                                                    4 0.0.a.w.p.s s.s.s.s.e                                                     ",
"                                                    4 0.0.0.r.u.s s.s.s.s.e                                                     ",
"                                                  < 4 0.0.0.s.9.s s.s.s.s.e <                                                   ",
"                                                , F 4 0.0.0.0.s.s s.s.s.s.e J ,                                                 ",
"                                              , b J 4 0.0.0.0.s.s s.s.s.s.e J F ,                                               ",
"                                          , , c F J 4 0.0.0.0.0.s s.s.s.s.e J F F , ,                                           ",
"                                        , b c J c J S h 0.0.0.0.s s.s.s.e.Z J J J F T ,                                         ",
"                                      , b b J c J F J 9 8.0.0.0.s s.s.s.6 F F J J T J T <                                       ",
"                                      , b F b F b F H 9 8.0.0.0.s s.s.s.6 A H F A J T T <                                       ",
"                                      , b n F x F J J 9 8.0.0.0.s s.s.s.6 J J J A T F T <                                       ",
"                                      , b B B B C A J 9 d f f f r 7.7.7.6 H F J F I P T <                                       ",
"                                        > b b H b H A 9       , W ,     6 A J J J J T ,                                         ",
"                                        , b H b F H S         , W @       Z F F A T H ,                                         ",
"                                          , x F b A ,       , W W W <     , J J H A ,                                           ",
"                                          , b b H F ,     , T W W W T <   , H A H T ,                                           ",
"                                          , b F x ,     , , T W W W T F ,   , J J F ,                                           ",
"                                            , b J ,     % J J T W T J F ,   < J F ,                                             ",
"                                            , b c ,     % H F T W T J F @   < J J ,                                             ",
"                                              , b ,     $ k J U R U J k ,   , F ,                                               ",
"                                                5 ,       , M F L F M @     , 8                                                 ",
"                                                , ,         , c F c ,       , ,                                                 ",
"                                                , ,           , c ,         , ,                                                 ",
"                                                  ,             ,           ,                                                   ",
"                                                  ,                         ,                                                   "
};
