/* XPM */
static char *_4e6e8b9bec64c0ebb7f59726cb2f317aYA0Oh3CA63fxRd8[] = {
/* columns rows colors chars-per-pixel */
"60 63 94 2 ",
"   c None",
".  c #000000",
"X  c #0D0C00",
"o  c #0C0C09",
"O  c #110F00",
"+  c #161300",
"@  c #1A1600",
"#  c #1D1900",
"$  c #1C1C16",
"%  c #211D00",
"&  c #2C2600",
"*  c #2F2800",
"=  c #322B00",
"-  c #3A3200",
";  c #232216",
":  c #4E4300",
">  c #514600",
",  c #564A00",
"<  c #5B4F00",
"1  c #5C5000",
"2  c #615300",
"3  c #6A5C00",
"4  c #6F6000",
"5  c #746500",
"6  c #7D6C00",
"7  c #50503F",
"8  c #545442",
"9  c #676751",
"0  c #7D7A50",
"q  c #7D7D62",
"w  c #837200",
"e  c #897600",
"r  c #917D00",
"t  c #958100",
"y  c #AC9400",
"u  c #B59C00",
"i  c #BAA100",
"p  c #C1A700",
"a  c #C4AA02",
"s  c #CAAE00",
"d  c #CEB200",
"f  c #D3B600",
"g  c #D6B900",
"h  c #DABC00",
"j  c #DFC100",
"k  c #E2C300",
"l  c #E7C800",
"z  c #EBCB00",
"x  c #F4D300",
"c  c #F8D700",
"v  c #FFDD00",
"b  c #FFDF0B",
"n  c #FFE000",
"m  c #FFE20E",
"M  c #FFE015",
"N  c #FFE11A",
"B  c #F6DD2F",
"V  c #FFE221",
"C  c #FFE637",
"Z  c #FFE636",
"A  c #838367",
"S  c #FFEA4F",
"D  c #FFED63",
"F  c #FFEE66",
"G  c #FFEE67",
"H  c #B1B18B",
"J  c #C4C49A",
"K  c #C6C69C",
"L  c #FFF590",
"P  c #FFF79B",
"I  c #FFF79D",
"U  c #DFDEAA",
"Y  c #DCDCAD",
"T  c #DEDEAF",
"R  c #FFF8A1",
"E  c #FFF8A4",
"W  c #FFFBA5",
"Q  c #E1E1B1",
"!  c #E9E9B8",
"~  c #FFFBB1",
"^  c #FFFBB2",
"/  c #FFFBB3",
"(  c #FFFEC3",
")  c #FFFFC4",
"_  c #FCFCC6",
"`  c #FCFCC7",
"'  c #FFFEC6",
"]  c #FEFEC8",
"[  c #FFFFC9",
"{  c #FFFFCA",
"}  c #FFFFCB",
"|  c #FFFFCC",
" . c #FFFFCD",
".. c #FFFFCE",
/* pixels */
"                                                        . . . .                                                         ",
"                                                        . . . .                                                         ",
"                                                        . . . .                                                         ",
"                                                        3 6 6 3 X                                                       ",
"                                                  . . X u n n i . . .                                                   ",
"                                                  . . . u n n i X . .                                                   ",
"                                                  . . X i n n i . . .                                                   ",
"                                                  . . . i n n i X . .                                                   ",
"                                                  . . X u v n i . . .                                                   ",
"                                                  . . X u v n i X . .                                                   ",
"                                                  . . . u n n i . . .                                                   ",
"                                                  . . X u n v i X . .                                                   ",
"                                                  . . . i n n i X . .                                                   ",
"                                                  # # # i n n i ; $ $                                                   ",
"                                          . . . : j j j x v n Z U Y Y 8 . . .                                           ",
"                                          . . . : v n v v v v Z ( { { 8 . . .                                           ",
"                                          . . . > v v v v v v Z ( ' _ 8 . . .                                           ",
"                                          . . . : c v v v v v Z ( { _ 8 . . .                                           ",
"                                          . . . > v v v v v v Z ( { _ 8 . . .                                           ",
"                                          . . . : v v v v v v Z ( { _ 8 . . .                                           ",
"                                          # # @ 2 c v v v v v Z ( { ' 9 $ $ $                                           ",
". . . . . . . . . . . . . . . . . . . . X y j j z v v v v v v Z ( { ' ! Y Q H o . . . . . . . . . . . . . . . . . . . . ",
". . . . . . . . . . . . . . . . . . . . X p n v v v v v v v v Z ( ' { { { | J o . . . . . . . . . . . . . . . . . . . . ",
". . . . . . . . . . . . . . . . . . . . X i n v v v v v v v v Z ( { { { { { J o . . . . . . . . . . . . . . . . . . . . ",
". . . - 6 6 6 6 6 6 6 6 6 6 6 6 6 6 6 6 w k n v v v v v v v v Z ( { { { { { Q A q q q q q 0 6 6 6 6 6 6 6 6 6 6 - . . . ",
". . . 5 n n n n n v n n n n n v n n n n v v v v v v n v v v v Z ( ' { ' ' { { { { | { { ..W M n n n n n n n n n 6 . . . ",
". . . 5 n v n v v v v v v v v v v v v v v v v v v v v v v v v Z ( { ' { { ' { { { { { { ..E b v v v v v v v n n 6 . . . ",
". . . 4 k k l x c c v c v c v v v v v v v v v v v v v v v v v Z ( { { { { { ( / / / / / / L m v v v v v v l j l 5 . . . ",
"      # # % = i h h h h h h x v v n v v v v v v v v v v v v v Z ( { { { { | R N M N N N N M v v v v v n h = # % #       ",
"        . . + y g f f f f g x v v v v v v v v v v v v v v v v Z ( { { ' { | I b v v v v v v v v v v v n g + . .         ",
"        . . O u h g g g g h v v v v v v v v v v v v v v v v v Z ' { { | { | R b v v v v v v n n n n n n h + . .         ",
"        . . X 2 4 3 3 3 3 5 d z l z z z z v v v v v v v v v v N D G G G G G S v v v v v v z e 6 w w w w 5 + . .         ",
"              . . . . . . X y f f f f f g x v v v v v v v v n v v v v v v v v v v v v v n d X . . . . . .               ",
"              . . . . . . X y g g g f f f x v v v v v v v v v v v v v v v n v v v v v v n f + . . . . . .               ",
"              . . . . . . X r i i a g g h x v v v v v v v v v v v v v v v v v v v v z k l u X . . . . . .               ",
"                      . . . + # @ 3 x v c v v v v v v v v v v v v v v v v v v v v v 5 # # @ . . .                       ",
"                      . . . . . . < v v v v v v n v v n v v n v v v v v v v v v v v 1 . . . . . .                       ",
"                      . . . . . . 1 v v v v v v v v v v v v v v v v v v v v v v v v 2 . . . . . .                       ",
"                      . . . . . . 1 v v n v v v v v v v v v v v v v v n v v v v v v 1 . . . . . .                       ",
"                            . . . 1 v v v v v v v v v v v v v v v v v v v v v n v v 2 . . .                             ",
"                            . . . 1 v v v v v v v v v v v v v v v v v v v v v n v v 2 . . .                             ",
"                            . . . 1 v v v v v v v v v v c v x v v v v n v v v v v v 2 . . .                             ",
"                            . . . 1 v v v v v v v v v v k h h k v v v v v v v v v v 1 . . .                             ",
"                            . . . < v v v v v v v v v v j f f k v v v v v v v v v v 2 . . .                             ",
"                            . . . 1 v v v n v v v v v v k f f h v v v v v v v v v v 2 . . .                             ",
"                            . . . 1 v v v v v v c z z z h f f h z l z x v v v v v v 2 . . .                             ",
"                            . . . 1 v v v v v v x f f f f f f g f f g x v v v v v v 2 . . .                             ",
"                            . . . < v v v v v v z f f f f g g g f g g z n v v v v v 1 . . .                             ",
"                            @ # @ 4 v v v v x v z g g f p i u p f f f z v v x v v v 5 @ # #                             ",
"                      . . X i k j z v v v k g g g f f d > + + : d f g g g h j v v v z j k i O . .                       ",
"                      . . X d n n n v v v h f f f g f d - . . - d f f f f f h v v n v n n f + . .                       ",
"                      . . O d v v v v v v k g g g g g f - . . - f g g g g g j v v v v v n d X . .                       ",
"                      . . X d n v c l z k e 3 3 3 3 3 3 =     & 3 3 3 3 3 3 e k z z x v v f O . .                       ",
"                      . . X d v v z f f s = . . . . . .         . . . . . . & s f f z n v d O . .                       ",
"                      . . X d v v x g g d = . . . . . .         . . . . . . = s g g z v n d O . .                       ",
"                      . . X s v v k i i u & . . . . . .         . . . . . . & u i i k c v d O . .                       ",
"                      . . X y h h t @ @ @ X . . .                     . . . X @ @ @ r h h u X . .                       ",
"                      . . X y g g w . . . . . . .                     . . . . . . . w h g y X . .                       ",
"                      . . X y h h e . . . . . . .                     . . . . . . . w h h y X . .                       ",
"                      . . X , 3 3 > . . . . . .                         . . . . . . > 3 3 > X . .                       ",
"                      . . . . . . .                                                 . . . . . . .                       ",
"                      . . . . . . .                                                 . . . . . . .                       ",
"                      . . . . . . .                                                 . . . . . . .                       "
};
