/* XPM */
static char *_6cdedb3b8aa4e91f0cbb1c642b15efagvbSuW78WpSmJTLv[] = {
/* columns rows colors chars-per-pixel */
"30 32 209 2 ",
"   c None",
".  c black",
"X  c #010100",
"o  c #010101",
"O  c #030200",
"+  c gray1",
"@  c #050400",
"#  c #050500",
"$  c #060500",
"%  c #060600",
"&  c #070600",
"*  c #060605",
"=  c #0C0A00",
"-  c #0C0B00",
";  c #0F0D00",
":  c #121000",
">  c #131000",
",  c #141100",
"<  c #151200",
"1  c #161300",
"2  c #181500",
"3  c #191600",
"4  c #1B1700",
"5  c #1C1800",
"6  c #1E1A00",
"7  c #1F1B00",
"8  c #131310",
"9  c #201C00",
"0  c #241F00",
"q  c #252000",
"w  c #262100",
"e  c #282300",
"r  c #2F2900",
"t  c #322B00",
"y  c #332C00",
"u  c #362E00",
"i  c #372F00",
"p  c #383000",
"a  c #393100",
"s  c #3A3200",
"d  c #3D3500",
"f  c #3E3600",
"g  c #3F3700",
"h  c #292610",
"j  c #3D3D30",
"k  c #403800",
"l  c #413800",
"z  c #423A00",
"x  c #453C00",
"c  c #463D00",
"v  c #494000",
"b  c #4A4000",
"n  c #4A4100",
"m  c #5A4E00",
"M  c #5E5100",
"N  c #665800",
"B  c #675900",
"V  c #695B00",
"C  c #6B5D00",
"Z  c #6E6000",
"A  c #7B6A00",
"S  c #7D6B00",
"D  c #7D6C00",
"F  c #7F6E00",
"G  c #5E5E4A",
"H  c #6D6D56",
"J  c #837300",
"K  c #877500",
"L  c #887700",
"P  c #897800",
"I  c #8A7800",
"U  c #8A7900",
"Y  c #8F7C00",
"T  c #897A0C",
"R  c #978400",
"E  c #9B8500",
"W  c #9C8600",
"Q  c #9C8700",
"!  c #9E8900",
"~  c #9F8A00",
"^  c #A99100",
"/  c #AA9200",
"(  c #AC9400",
")  c #B19900",
"_  c #B69D00",
"`  c #BBA200",
"'  c #BDA300",
"]  c #C0A600",
"[  c #C1A700",
"{  c #C2A800",
"}  c #C3A800",
"|  c #C2A900",
" . c #C2AA00",
".. c #C3AA00",
"X. c #C3AB00",
"o. c #C6AB00",
"O. c #C7AB00",
"+. c #C8AD00",
"@. c #C9AE00",
"#. c #CAB100",
"$. c #CBB100",
"%. c #CCB100",
"&. c #CCB200",
"*. c #CDB300",
"=. c #CFB300",
"-. c #CFB400",
";. c #D0B400",
":. c #D2B700",
">. c #D0B604",
",. c #D3B800",
"<. c #D4B800",
"1. c #D7BA00",
"2. c #D8BA00",
"3. c #D9BB00",
"4. c #D9BC00",
"5. c #DABC00",
"6. c #DBBD00",
"7. c #DABF00",
"8. c #DBBF00",
"9. c #DCBD00",
"0. c #DCBE00",
"q. c #DEBF00",
"w. c #DFC200",
"e. c #E0C200",
"r. c #E1C200",
"t. c #E2C300",
"y. c #E5C500",
"u. c #E8C900",
"i. c #E9C900",
"p. c #EACA00",
"a. c #EACC00",
"s. c #EACD00",
"d. c #EDCD00",
"f. c #EECF00",
"g. c #EFCF00",
"h. c #F0CF00",
"j. c #EFD000",
"k. c #F0D000",
"l. c #F0D100",
"z. c #F1D100",
"x. c #F2D100",
"c. c #F2D200",
"v. c #F4D300",
"b. c #F5D500",
"n. c #F6D600",
"m. c #F7D600",
"M. c #F7D700",
"N. c #F8D600",
"B. c #F9D700",
"V. c #F9D800",
"C. c #FAD800",
"Z. c #FBD900",
"A. c #FBDA00",
"S. c #FCDA00",
"D. c #FCDB00",
"F. c #FDDB00",
"G. c #FDDC00",
"H. c #FEDC00",
"J. c #FFDC00",
"K. c #FEDD00",
"L. c #FFDD00",
"P. c #FFDE00",
"I. c #FFDF00",
"U. c #FFDE06",
"Y. c #FFDF0D",
"T. c #FFE000",
"R. c #FFE100",
"E. c #FFE200",
"W. c #FFE006",
"Q. c #FFE316",
"!. c #FFE11B",
"~. c #FFE11D",
"^. c #FFE21E",
"/. c #F4D922",
"(. c #FFE325",
"). c #FFE42A",
"_. c #FFE42B",
"`. c #FFE52F",
"'. c #FFE637",
"]. c #FFE639",
"[. c #89875B",
"{. c #88886C",
"}. c #88886D",
"|. c #898A6E",
" X c #9E9E7D",
".X c #A0A07F",
"XX c #FFE949",
"oX c #FFF177",
"OX c #BBBB94",
"+X c #C1C199",
"@X c #D0CD93",
"#X c #FFF79F",
"$X c #FFFAA2",
"%X c #FFFAAC",
"&X c #FFFAAF",
"*X c #FFFCB8",
"=X c #FFFCB9",
"-X c #FFFEB9",
";X c #FFFFBA",
":X c #FFFFBD",
">X c #F7F7C4",
",X c #FFFFC2",
"<X c #FFFFC4",
"1X c #FFFFC5",
"2X c #FDFDC9",
"3X c #FEFEC9",
"4X c #FFFFC9",
"5X c #FFFFCA",
"6X c #FFFFCC",
/* pixels */
"                            X X                             ",
"                            z z                             ",
"                        X < | | < X                         ",
"                        X < #.=.< X                         ",
"                        X < #.#.< X                         ",
"                        X > #.=.> X                         ",
"                        : e =.>.h 8                         ",
"                      % K ;.c./.@X}.*                       ",
"                      % ! R.P._.&XOX*                       ",
"                      X ! P.P._.*X X+                       ",
"                    f M ' R.J._.*XOXG j                     ",
"X X X X X X X X X X C M.J.J.P._.=X>X>XH X X X X X X X X X X ",
"X w J U U L U K U K ` P.J.P.P._.=X2X2XOX{.}.[.T L U U K w X ",
"X v a.Z.P.P.P.P.R.R.P.J.P.J.J._.=X2X2X2X,X<X$XQ.P.R.Z.a.v X ",
"    x Y t.t.y.Z.P.P.P.P.J.P.J._.=X6X6XoX'.].`.W.R.P.~ x     ",
"    X m _ _ ' d.B.B.Z.P.P.J.P.(.$X&X%XXXJ.P.B.w.7.7.C X     ",
"      3 9 5 t ` q.2.u.P.P.J.P.U.!.~.~.Y.P.R.7.f 0 0 9       ",
"        X X - S ( 2.d.J.J.P.J.J.P.J.P.P.Z.=.R : X X         ",
"          X X % c d.J.P.P.J.J.P.J.P.J.P.c.c % X X           ",
"            X X k h.P.P.J.P.P.J.P.J.P.P.j.f X X             ",
"              X k d.P.P.P.P.J.J.J.P.P.P.d.z X               ",
"              X f h.P.P.P.J.u.u.Z.J.J.P.d.k X               ",
"              X f h.P.P.J.b.9.9.b.J.P.P.h.z X               ",
"              X f d.P.P.p.9.2.2.7.p.P.P.d.f X               ",
"              t N c.J.v.t.;.) ) =.t.b.J.c.B r               ",
"          X 3 | h.P.d.7.2...s p ..2.7.h.P.c.| 5 X           ",
"          X 3 :.J.h.[ K L J 0 0 F K K [ c.P.<.5 X           ",
"          X 5 :.B.7.S % @ @     @ @ % A 2.b.,.5 X           ",
"          X 2 [ +.C u X X         X X u V +.| 3 X           ",
"          X < / Q - X X             X X = E / < X           ",
"          X % t u                         p t % X           ",
"          X X X X                         X X X X           "
};
